<svg width="311" height="149" viewBox="0 0 311 149" fill="none" xmlns="http://www.w3.org/2000/svg">
<path d="M2 26C2 35.3687 3.73651 45.2114 4.49688 54.5893C5.5962 68.1476 8.63795 81.7059 9.80275 95.1011C9.83507 95.4728 9.95601 100.572 10.4894 99.6579C13.6798 94.1886 13.9287 84.855 14.9213 78.7466C17.4917 62.9292 20.2443 47.1321 24.2222 31.618C24.357 31.0924 25.2995 26.0763 26.0949 27.2484C29.2223 31.8572 30.5731 38.4541 32.0874 43.7278C36.2228 58.1305 41.0196 72.3971 45.7578 86.6117C46.6175 89.1907 46.0415 96.1548 48.1298 94.4145C51.0972 91.9417 51.6361 80.4777 52.7491 76.7491C56.1252 65.4388 59.467 50.4736 66.0449 40.6067" stroke="#0070A7" stroke-width="3" stroke-linecap="round"/>
<path d="M116.607 78.809C110.314 72.5165 100.847 70.59 94.2597 64.8265C91.1475 62.1033 87.9267 65.4292 86.2697 67.8227C81.9366 74.0815 77.2068 83.7514 84.0849 89.4831C93.4466 97.2846 100.272 84.8023 104.31 78.7466C106.278 75.7933 107.443 70.3468 110.365 68.2597C111.008 67.7998 113.186 71.9865 113.735 72.5668C120.393 79.6045 125.425 88.0587 133.461 93.4157" stroke="#0070A7" stroke-width="3" stroke-linecap="round"/>
<path d="M139.079 67.573C139.079 76.9671 140.202 86.3575 140.202 95.6629" stroke="#0070A7" stroke-width="3" stroke-linecap="round"/>
<path d="M139.079 54.0899C138.58 53.5292 137.955 51.6761 137.955 52.9663" stroke="#0070A7" stroke-width="3" stroke-linecap="round"/>
<ellipse cx="236" cy="71.5" rx="75" ry="71.5" fill="#FF672A"/>
<path d="M161 148.5L173.5 97L196 118.5L161 148.5Z" fill="#FF672A"/>
<path d="M175.056 89.1348C176.917 76.5774 175.056 64.1697 175.056 51.5568C175.056 47.5912 175.613 50.5474 177.054 52.9301C180.373 58.4198 184.223 63.551 187.416 69.1598C190.38 74.3681 192.942 79.8055 195.78 85.0774C196.212 85.879 198.2 92.105 198.589 87.824C199.726 75.3249 198.652 62.3545 198.652 49.809" stroke="white" stroke-width="3" stroke-linecap="round"/>
<path d="M215.506 76.7753C213.909 76.5757 214.319 69.3817 218.876 74.5905C220.443 76.3812 225.818 81.5692 223.62 83.7665C218.156 89.2314 214.694 85.2643 212.135 80.1461" stroke="white" stroke-width="3" stroke-linecap="round"/>
<path d="M230.112 71.1573C230.568 76.6273 232.36 81.5883 232.36 87.1373C232.36 90.4048 233.117 84.6992 233.233 84.0162C234.116 78.819 234.422 73.017 236.355 68.0986C239.151 60.9809 240.844 60.7907 244.157 67.1623C246.626 71.9102 249.213 75.7642 249.213 81.2697" stroke="white" stroke-width="3" stroke-linecap="round"/>
<path d="M278.427 68.9101C278.427 65.7609 275.408 60.4572 271.685 61.0449C266.469 61.8686 259.537 82.6723 259.326 86.8876C259.122 90.9717 262.414 90.9241 264.944 90.2584C271.629 88.4991 282.921 69.8462 282.921 62.8552C282.921 48.3097 286.671 92.5962 282.36 106.488C280.976 110.947 278.12 121.305 273.433 117.287C266.1 111.002 288.591 98.3277 291.91 97" stroke="white" stroke-width="3" stroke-linecap="round"/>
</svg>
